<?xml version="1.0" encoding="utf-8"?>
<!-- Generator: Adobe Illustrator 14.0.0, SVG Export Plug-In . SVG Version: 6.00 Build 43363)  -->
<!DOCTYPE svg PUBLIC "-//W3C//DTD SVG 1.1//EN" "http://www.w3.org/Graphics/SVG/1.1/DTD/svg11.dtd">
<svg version="1.1" id="Livello_1" xmlns="http://www.w3.org/2000/svg" xmlns:xlink="http://www.w3.org/1999/xlink" x="0px" y="0px"
	 width="200.599px" height="259.919px" viewBox="0 0 200.599 259.919" enable-background="new 0 0 200.599 259.919"
	 xml:space="preserve">
<g>
	<defs>
		<rect id="SVGID_1_" x="-15.516" width="370.131" height="280.951"/>
	</defs>
	<clipPath id="SVGID_2_">
		<use xlink:href="#SVGID_1_"  overflow="visible"/>
	</clipPath>
	<g clip-path="url(#SVGID_2_)">
		<path fill="#FFFFFF" d="M2.518,178.793c0,0,0.076,19.292,19.369,19.211l73.238-0.31c0,0,19.293-0.08,4.721-12.726L16.782,112.89
			c0,0-14.572-12.645-14.496,6.648L2.518,178.793z"/>
	</g>
	<g clip-path="url(#SVGID_2_)">
		<path d="M21.766,200.339c-17.002-0.001-21.552-14.088-21.583-21.537l-0.232-59.255c-0.021-5.31,0.997-8.923,3.112-11.046
			c1.312-1.318,3.037-2.015,4.985-2.015c4.778,0,9.716,4.165,10.263,4.64l83.064,72.079c5.179,4.495,7.113,8.255,5.911,11.495
			c-1.867,5.031-10.451,5.322-12.152,5.329L21.766,200.339L21.766,200.339z M8.048,111.156c-0.719,0-1.236,0.197-1.677,0.64
			c-0.663,0.665-1.771,2.555-1.751,7.733l0.232,59.255c0.006,0.684,0.348,16.885,16.914,16.886h0.111l73.238-0.31
			c3.287-0.021,7.321-1.002,7.795-2.284c0.245-0.663-0.447-2.745-4.594-6.344l-83.063-72.079
			C14.126,113.682,10.631,111.156,8.048,111.156L8.048,111.156z"/>
	</g>
	<g clip-path="url(#SVGID_2_)">
		<path fill="#646567" d="M13.573,186.933c10.764,10.764,28.215,10.763,38.978,0c10.764-10.765,10.764-28.216,0-38.979
			c-10.763-10.764-28.214-10.764-38.978,0C2.81,158.717,2.81,176.169,13.573,186.933"/>
	</g>
	<g clip-path="url(#SVGID_2_)">
		<path fill="#FFFFFF" d="M13.502,163.852c-6.79,6.79-3.883,13.717,3.796,21.396c8.554,8.554,16.385,12.039,23.447,4.977
			c4.345-4.345,6.225-7.572,3.322-15.581c-2.797-7.576-5.752-12.704-3.796-14.66l1.249-1.249c1.467-1.467,2.71-1.093,3.855,0.053
			c1.145,1.145,1.275,2.361-0.083,3.72l-2.987,2.988l11.114,11.113l2.987-2.987c6.519-6.519,0.483-15.705-4.569-20.757
			c-12.124-12.124-19.041-7.634-23.277-3.396c-9.941,9.941,5.923,23.849,1.034,28.738l-1.63,1.629
			c-1.304,1.304-2.924,0.769-4.002-0.309c-1.28-1.279-1.139-2.769-0.215-3.691l4.345-4.346l-11.114-11.113L13.502,163.852z"/>
	</g>
	<g clip-path="url(#SVGID_2_)">
		<path fill="#B5619E" d="M72.284,160.902c0,0-14.645-12.708,3.683-19.037l103.838-35.855c0,0,18.328-6.329,18.396,13.062
			l0.207,59.025c0,0,0.066,19.391-19.322,19.458l-44.915,0.157c0,0-19.39,0.067-34.034-12.641L72.284,160.902z"/>
	</g>
	<g clip-path="url(#SVGID_2_)">
		<path d="M134.165,200.046c-0.83,0-20.506-0.15-35.558-13.212l-27.853-24.169c-0.308-0.267-7.512-6.61-6.18-13.495
			c0.803-4.153,4.38-7.354,10.63-9.512l103.838-35.855c0.132-0.045,3.273-1.115,7.085-1.115c4.314,0,14.355,1.596,14.408,16.375
			l0.207,59.025c0.025,7.515-4.466,21.741-21.649,21.801l-44.915,0.157C134.177,200.046,134.167,200.046,134.165,200.046
			L134.165,200.046z M134.165,196.02v1.692l0.001-1.464L134.165,196.02L134.165,196.02z M186.128,107.357
			c-2.999,0-5.541,0.853-5.566,0.861L76.729,144.072c-3.131,1.082-6.986,2.996-7.569,5.977c-0.688,3.517,3.129,7.756,4.657,9.093
			l27.85,24.166c13.75,11.931,32.312,12.069,32.498,12.069h0.001l44.913-0.157c16.86-0.059,16.998-16.419,16.995-17.116
			l-0.206-59.025C195.839,111.191,192.654,107.357,186.128,107.357L186.128,107.357z"/>
	</g>
	<g clip-path="url(#SVGID_2_)">
		<path fill="#CC071E" d="M76.31,142.257c0,0-18.328,6.328-14.645-12.708L82.532,21.694c0,0,3.683-19.036,23.073-19.104
			l73.138-0.257c0,0,19.391-0.067,19.459,19.322l0.207,59.026c0,0,0.066,19.39-18.262,25.719L76.31,142.257z"/>
	</g>
	<g clip-path="url(#SVGID_2_)">
		<path d="M70.11,145.601c-3.851,0-6.912-1.244-8.854-3.597c-2.354-2.853-2.988-7.192-1.884-12.898L80.24,21.251
			c0.041-0.209,4.292-20.921,25.356-20.995L178.735,0c7.521,0,21.741,4.524,21.802,21.648l0.207,59.026
			c0,0.211-0.156,21.138-19.835,27.934L77.071,144.463C76.937,144.51,73.736,145.601,70.11,145.601L70.11,145.601z M178.745,4.668
			l-73.132,0.257c-17.184,0.06-20.651,16.518-20.79,17.218L63.957,129.992c-0.815,4.212-0.503,7.337,0.901,9.04
			c1.04,1.26,2.807,1.899,5.252,1.899c2.806,0,5.413-0.873,5.438-0.881l103.837-35.855c16.478-5.69,16.688-22.785,16.688-23.51
			l-0.207-59.021C195.808,4.891,179.442,4.67,178.745,4.668L178.745,4.668z"/>
	</g>
	<g clip-path="url(#SVGID_2_)">
		<path fill="#F29400" d="M82.19,21.304c0,0,3.683-19.037-15.706-18.969L21.57,2.491c0,0-19.39,0.068-19.322,19.459l0.206,59.025
			c0,0,0.068,19.39,14.713,32.098l25.828,22.412c0,0,14.645,12.708,18.328-6.328L82.19,21.304z"/>
	</g>
	<g clip-path="url(#SVGID_2_)">
		<path d="M52.572,141.974c0,0,0,0-0.001,0c-5.596,0-10.884-4.532-11.106-4.726l-25.828-22.412
			C0.367,101.586,0.122,81.819,0.119,80.984l-0.206-59.025C-0.147,4.774,14.047,0.183,21.562,0.157L66.588,0
			c6.404,0,11.248,1.935,14.397,5.751c5.277,6.396,3.572,15.606,3.497,15.995L63.615,129.601
			C61.636,139.827,56.518,141.974,52.572,141.974L52.572,141.974z M66.588,4.669l-45.01,0.156
			C20.887,4.832,4.523,5.168,4.582,21.942l0.206,59.025c0.001,0.181,0.276,18.513,13.909,30.343l25.828,22.412
			c1.155,0.994,4.86,3.583,8.046,3.583c0,0,0,0,0.001,0c3.183,0,5.355-2.891,6.458-8.591L79.898,20.86
			c0.013-0.068,1.351-7.477-2.529-12.156C75.147,6.027,71.52,4.669,66.588,4.669L66.588,4.669z"/>
	</g>
</g>
<g>
	<g>
		<path d="M0.349,259.919v-49.55h43.25c14.865,0,20.103,5.38,20.103,14.724c0,12.316-6.229,15.572-19.749,15.572H4.95v19.254H0.349z
			 M4.95,214.758v21.519h37.941c12.104,0,15.926-1.698,15.926-11.113c0-7.433-4.035-10.405-16.139-10.405H4.95z"/>
	</g>
	<g>
		<path d="M72.691,259.919v-49.55h43.25c14.865,0,20.104,5.38,20.104,14.724c0,12.316-6.229,15.572-19.75,15.572H77.292v19.254
			H72.691z M77.292,214.758v21.519h37.941c12.104,0,15.926-1.698,15.926-11.113c0-7.433-4.034-10.405-16.139-10.405H77.292z"/>
	</g>
	<g>
		<path d="M145.033,210.369h4.601v45.161h50.966v4.389h-55.566V210.369z"/>
	</g>
</g>
</svg>
