<?xml version="1.0" encoding="UTF-8" standalone="no"?>
<!-- Created with Inkscape (http://www.inkscape.org/) -->

<svg
   xmlns:svg="http://www.w3.org/2000/svg"
   xmlns="http://www.w3.org/2000/svg"
   xmlns:xlink="http://www.w3.org/1999/xlink"
   version="1.1"
   width="200.83119"
   height="200.339"
   viewBox="0 0 200.83119 200.339"
   id="Livello_1"
   xml:space="preserve"><defs
   id="defs67" />
<g
   transform="translate(0.08718962,-3.8065011e-6)"
   id="g3">
	<defs
   id="defs5"><rect
     width="370.13101"
     height="280.95099"
     x="-15.516"
     y="0"
     id="SVGID_1_" /></defs>
	<clipPath
   id="SVGID_2_">
		<use
   id="use9"
   style="overflow:visible"
   x="0"
   y="0"
   width="200.599"
   height="259.91901"
   xlink:href="#SVGID_1_" />
	</clipPath>
	<g
   clip-path="url(#SVGID_2_)"
   id="g11">
		<path
   d="m 2.518,178.793 c 0,0 0.076,19.292 19.369,19.211 l 73.238,-0.31 c 0,0 19.293,-0.08 4.721,-12.726 L 16.782,112.89 c 0,0 -14.572,-12.645 -14.496,6.648 l 0.232,59.255 z"
   id="path13"
   style="fill:#ffffff" />
	</g>
	<g
   clip-path="url(#SVGID_2_)"
   id="g15">
		<path
   d="M 21.766,200.339 C 4.764,200.338 0.214,186.251 0.183,178.802 l -0.232,-59.255 c -0.021,-5.31 0.997,-8.923 3.112,-11.046 1.312,-1.318 3.037,-2.015 4.985,-2.015 4.778,0 9.716,4.165 10.263,4.64 l 83.064,72.079 c 5.179,4.495 7.113,8.255 5.911,11.495 -1.867,5.031 -10.451,5.322 -12.152,5.329 l -73.368,0.31 0,0 z M 8.048,111.156 c -0.719,0 -1.236,0.197 -1.677,0.64 -0.663,0.665 -1.771,2.555 -1.751,7.733 l 0.232,59.255 c 0.006,0.684 0.348,16.885 16.914,16.886 h 0.111 l 73.238,-0.31 c 3.287,-0.021 7.321,-1.002 7.795,-2.284 0.245,-0.663 -0.447,-2.745 -4.594,-6.344 L 15.253,114.653 c -1.127,-0.971 -4.622,-3.497 -7.205,-3.497 l 0,0 z"
   id="path17" />
	</g>
	<g
   clip-path="url(#SVGID_2_)"
   id="g19">
		<path
   d="m 13.573,186.933 c 10.764,10.764 28.215,10.763 38.978,0 10.764,-10.765 10.764,-28.216 0,-38.979 -10.763,-10.764 -28.214,-10.764 -38.978,0 -10.763,10.763 -10.763,28.215 0,38.979"
   id="path21"
   style="fill:#646567" />
	</g>
	<g
   clip-path="url(#SVGID_2_)"
   id="g23">
		<path
   d="m 13.502,163.852 c -6.79,6.79 -3.883,13.717 3.796,21.396 8.554,8.554 16.385,12.039 23.447,4.977 4.345,-4.345 6.225,-7.572 3.322,-15.581 -2.797,-7.576 -5.752,-12.704 -3.796,-14.66 l 1.249,-1.249 c 1.467,-1.467 2.71,-1.093 3.855,0.053 1.145,1.145 1.275,2.361 -0.083,3.72 l -2.987,2.988 11.114,11.113 2.987,-2.987 c 6.519,-6.519 0.483,-15.705 -4.569,-20.757 -12.124,-12.124 -19.041,-7.634 -23.277,-3.396 -9.941,9.941 5.923,23.849 1.034,28.738 l -1.63,1.629 c -1.304,1.304 -2.924,0.769 -4.002,-0.309 -1.28,-1.279 -1.139,-2.769 -0.215,-3.691 l 4.345,-4.346 -11.114,-11.113 -3.476,3.475 z"
   id="path25"
   style="fill:#ffffff" />
	</g>
	<g
   clip-path="url(#SVGID_2_)"
   id="g27">
		<path
   d="m 72.284,160.902 c 0,0 -14.645,-12.708 3.683,-19.037 L 179.805,106.01 c 0,0 18.328,-6.329 18.396,13.062 l 0.207,59.025 c 0,0 0.066,19.391 -19.322,19.458 l -44.915,0.157 c 0,0 -19.39,0.067 -34.034,-12.641 L 72.284,160.902 z"
   id="path29"
   style="fill:#b5619e" />
	</g>
	<g
   clip-path="url(#SVGID_2_)"
   id="g31">
		<path
   d="m 134.165,200.046 c -0.83,0 -20.506,-0.15 -35.558,-13.212 L 70.754,162.665 c -0.308,-0.267 -7.512,-6.61 -6.18,-13.495 0.803,-4.153 4.38,-7.354 10.63,-9.512 l 103.838,-35.855 c 0.132,-0.045 3.273,-1.115 7.085,-1.115 4.314,0 14.355,1.596 14.408,16.375 l 0.207,59.025 c 0.025,7.515 -4.466,21.741 -21.649,21.801 l -44.915,0.157 c -0.001,0 -0.011,0 -0.013,0 l 0,0 z m 0,-4.026 v 1.692 l 0.001,-1.464 -0.001,-0.228 0,0 z m 51.963,-88.663 c -2.999,0 -5.541,0.853 -5.566,0.861 L 76.729,144.072 c -3.131,1.082 -6.986,2.996 -7.569,5.977 -0.688,3.517 3.129,7.756 4.657,9.093 l 27.85,24.166 c 13.75,11.931 32.312,12.069 32.498,12.069 h 0.001 l 44.913,-0.157 c 16.86,-0.059 16.998,-16.419 16.995,-17.116 l -0.206,-59.025 c -0.029,-7.888 -3.214,-11.722 -9.74,-11.722 l 0,0 z"
   id="path33" />
	</g>
	<g
   clip-path="url(#SVGID_2_)"
   id="g35">
		<path
   d="m 76.31,142.257 c 0,0 -18.328,6.328 -14.645,-12.708 L 82.532,21.694 c 0,0 3.683,-19.036 23.073,-19.104 l 73.138,-0.257 c 0,0 19.391,-0.067 19.459,19.322 l 0.207,59.026 c 0,0 0.066,19.39 -18.262,25.719 L 76.31,142.257 z"
   id="path37"
   style="fill:#cc071e" />
	</g>
	<g
   clip-path="url(#SVGID_2_)"
   id="g39">
		<path
   d="m 70.11,145.601 c -3.851,0 -6.912,-1.244 -8.854,-3.597 -2.354,-2.853 -2.988,-7.192 -1.884,-12.898 L 80.24,21.251 C 80.281,21.042 84.532,0.33 105.596,0.256 L 178.735,0 c 7.521,0 21.741,4.524 21.802,21.648 l 0.207,59.026 c 0,0.211 -0.156,21.138 -19.835,27.934 L 77.071,144.463 c -0.134,0.047 -3.335,1.138 -6.961,1.138 l 0,0 z M 178.745,4.668 105.613,4.925 C 88.429,4.985 84.962,21.443 84.823,22.143 L 63.957,129.992 c -0.815,4.212 -0.503,7.337 0.901,9.04 1.04,1.26 2.807,1.899 5.252,1.899 2.806,0 5.413,-0.873 5.438,-0.881 l 103.837,-35.855 c 16.478,-5.69 16.688,-22.785 16.688,-23.51 L 195.866,21.664 C 195.808,4.891 179.442,4.67 178.745,4.668 l 0,0 z"
   id="path41" />
	</g>
	<g
   clip-path="url(#SVGID_2_)"
   id="g43">
		<path
   d="m 82.19,21.304 c 0,0 3.683,-19.037 -15.706,-18.969 L 21.57,2.491 c 0,0 -19.39,0.068 -19.322,19.459 l 0.206,59.025 c 0,0 0.068,19.39 14.713,32.098 l 25.828,22.412 c 0,0 14.645,12.708 18.328,-6.328 L 82.19,21.304 z"
   id="path45"
   style="fill:#f29400" />
	</g>
	<g
   clip-path="url(#SVGID_2_)"
   id="g47">
		<path
   d="m 52.572,141.974 c 0,0 0,0 -0.001,0 -5.596,0 -10.884,-4.532 -11.106,-4.726 L 15.637,114.836 C 0.367,101.586 0.122,81.819 0.119,80.984 L -0.087,21.959 C -0.147,4.774 14.047,0.183 21.562,0.157 L 66.588,0 c 6.404,0 11.248,1.935 14.397,5.751 5.277,6.396 3.572,15.606 3.497,15.995 L 63.615,129.601 c -1.979,10.226 -7.097,12.373 -11.043,12.373 l 0,0 z M 66.588,4.669 21.578,4.825 C 20.887,4.832 4.523,5.168 4.582,21.942 l 0.206,59.025 c 10e-4,0.181 0.276,18.513 13.909,30.343 l 25.828,22.412 c 1.155,0.994 4.86,3.583 8.046,3.583 0,0 0,0 0.001,0 3.183,0 5.355,-2.891 6.458,-8.591 L 79.898,20.86 C 79.911,20.792 81.249,13.383 77.369,8.704 75.147,6.027 71.52,4.669 66.588,4.669 l 0,0 z"
   id="path49" />
	</g>
</g>

</svg>